<svg id="Group_19584" data-name="Group 19584" xmlns="http://www.w3.org/2000/svg" xmlns:xlink="http://www.w3.org/1999/xlink" width="126.556" height="65.574" viewBox="0 0 126.556 65.574">
  <defs>
    <clipPath id="clip-path">
      <rect id="Rectangle_11752" data-name="Rectangle 11752" width="126.556" height="65.574" fill="#fff"/>
    </clipPath>
  </defs>
  <path id="Path_8206" data-name="Path 8206" d="M52.4,40.964h19.44v2.821H55.457v9.662H70.105V56.23H55.457V68.017H52.4Z" transform="translate(-27.76 -21.7)" fill="#fff"/>
  <path id="Path_8207" data-name="Path 8207" d="M0,0V46.44H3.053V2.822H44.084V0Z" transform="translate(0 0)" fill="#fff"/>
  <path id="Path_8208" data-name="Path 8208" d="M211.737,40.574V84.246H166.564v2.822h48.227V40.574Z" transform="translate(-88.235 -21.494)" fill="#fff"/>
  <g id="Group_19583" data-name="Group 19583">
    <g id="Group_19582" data-name="Group 19582" clip-path="url(#clip-path)">
      <path id="Path_8209" data-name="Path 8209" d="M102.539,54.046v-.077a13.8,13.8,0,1,1,27.594-.078v.078a13.8,13.8,0,1,1-27.594.077m24.425,0v-.077c0-6.145-4.483-11.17-10.667-11.17s-10.589,4.947-10.589,11.092v.078c0,6.144,4.484,11.169,10.667,11.169s10.589-4.947,10.589-11.092" transform="translate(-54.319 -21.178)" fill="#fff"/>
      <path id="Path_8210" data-name="Path 8210" d="M190.559,40.964,180.588,54.22l10.358,13.8h-3.633l-8.657-11.671L170,68.017h-3.517l10.358-13.8-9.971-13.256h3.594l8.271,11.131L187,40.964Z" transform="translate(-88.191 -21.7)" fill="#fff"/>
    </g>
  </g>
</svg>
