<?xml version="1.0" standalone="no"?>
<!DOCTYPE svg PUBLIC "-//W3C//DTD SVG 20010904//EN"
 "http://www.w3.org/TR/2001/REC-SVG-20010904/DTD/svg10.dtd">
<svg version="1.0" xmlns="http://www.w3.org/2000/svg"
 width="100.000000pt" height="100.000000pt" viewBox="0 0 100.000000 100.000000"
 preserveAspectRatio="xMidYMid meet">
<metadata>
Created by potrace 1.14, written by Peter Selinger 2001-2017
</metadata>
<g transform="translate(0.000000,100.000000) scale(0.100000,-0.100000)"
fill="#000000" stroke="none">
<path d="M0 500 l0 -500 500 0 500 0 0 500 0 500 -500 0 -500 0 0 -500z m620
315 c0 -13 -29 -15 -205 -15 l-205 0 0 -220 c0 -189 -2 -220 -15 -220 -13 0
-15 33 -15 235 l0 235 220 0 c189 0 220 -2 220 -15z m188 -397 l-3 -233 -239
0 c-183 0 -240 3 -243 13 -4 9 45 12 221 12 l226 0 0 220 c0 214 1 220 20 220
20 0 20 -5 18 -232z m-188 207 c0 -12 -16 -15 -80 -15 l-80 0 0 -50 0 -50 70
0 c56 0 70 -3 70 -15 0 -12 -14 -15 -70 -15 l-70 0 0 -55 c0 -42 -3 -55 -15
-55 -13 0 -15 22 -15 135 l0 135 95 0 c78 0 95 -3 95 -15z"/>
</g>
</svg>
